<?xml version="1.0" encoding="utf-8"?>
<!-- Generator: Adobe Illustrator 22.0.1, SVG Export Plug-In . SVG Version: 6.00 Build 0)  -->
<svg version="1.1" id="Layer_1" xmlns="http://www.w3.org/2000/svg" xmlns:xlink="http://www.w3.org/1999/xlink" x="0px" y="0px"
	 viewBox="0 0 841.9 595.3" style="enable-background:new 0 0 841.9 595.3;" xml:space="preserve">
<style type="text/css">
	.st0{fill:#00A551;}
	.st1{fill:#FFFFFF;}
</style>
<g>
	<path class="st0" d="M236.4,108.1c26.1,0,46.1,4.6,60,13.9c13.9,9.3,20.8,23.7,20.8,43.3c0,12.2-2.8,22.1-8.4,29.8
		c-5.6,7.6-13.7,13.6-24.2,18c3.5,4.4,7.2,9.3,11,14.9c3.8,5.6,7.7,11.5,11.4,17.6c3.8,6.1,7.4,12.5,10.9,19.1
		c3.5,6.6,6.8,13.1,9.8,19.5H284c-3.2-5.7-6.4-11.5-9.7-17.3c-3.3-5.9-6.6-11.5-10.1-17.1s-6.9-10.8-10.2-15.7
		c-3.4-4.9-6.7-9.4-10.1-13.4h-19.3v63.5h-39.2V112.6c8.5-1.7,17.4-2.8,26.5-3.5C221.1,108.4,229.2,108.1,236.4,108.1z M238.7,141.5
		c-2.8,0-5.4,0.1-7.7,0.3c-2.3,0.2-4.4,0.3-6.4,0.5v47.2h11c14.7,0,25.3-1.8,31.6-5.5c6.4-3.7,9.5-10,9.5-18.8
		c0-8.5-3.2-14.6-9.7-18.2C260.7,143.3,251.2,141.5,238.7,141.5z"/>
	<path class="st0" d="M352.9,284.1v-174h117.5V143h-78.3v34.1h69.6v32.1h-69.6v41.9h84.1v32.9H352.9z"/>
	<path class="st0" d="M552.5,254.2c5.5,0,10.1-0.5,13.7-1.4c3.6-0.9,6.5-2.2,8.7-3.8c2.2-1.6,3.7-3.5,4.5-5.6
		c0.8-2.2,1.3-4.6,1.3-7.3c0-5.7-2.7-10.4-8-14.2c-5.4-3.8-14.6-7.8-27.6-12.2c-5.7-2-11.4-4.3-17.1-6.9c-5.7-2.6-10.8-5.9-15.3-9.8
		c-4.5-3.9-8.2-8.7-11-14.3c-2.8-5.6-4.3-12.4-4.3-20.5c0-8,1.5-15.3,4.5-21.7c3-6.4,7.3-11.9,12.8-16.4c5.5-4.5,12.2-8,20.1-10.4
		c7.9-2.4,16.7-3.6,26.6-3.6c11.7,0,21.8,1.3,30.4,3.8c8.5,2.5,15.6,5.3,21.1,8.3L601.5,149c-4.9-2.5-10.3-4.7-16.2-6.7
		c-5.9-1.9-13.1-2.9-21.5-2.9c-9.4,0-16.1,1.3-20.2,3.9c-4.1,2.6-6.1,6.6-6.1,11.9c0,3.2,0.8,5.9,2.3,8c1.5,2.2,3.6,4.1,6.4,5.9
		c2.8,1.8,5.9,3.4,9.5,4.8c3.6,1.4,7.6,2.9,11.9,4.4c9,3.4,16.9,6.7,23.6,9.9c6.7,3.3,12.3,7.1,16.7,11.4c4.4,4.4,7.7,9.5,9.9,15.3
		c2.2,5.9,3.3,13,3.3,21.3c0,16.2-5.7,28.8-17.1,37.8c-11.4,9-28.5,13.4-51.5,13.4c-7.7,0-14.6-0.5-20.8-1.4
		c-6.2-0.9-11.7-2.1-16.4-3.4c-4.8-1.3-8.9-2.8-12.3-4.3c-3.4-1.5-6.3-2.9-8.7-4.3l11-31.1c5.2,2.8,11.6,5.4,19.2,7.7
		C532.2,253.1,541.5,254.2,552.5,254.2z"/>
	<path class="st0" d="M756.2,110.1h39.2v174h-39.2v-73.8h-65.8v73.8h-39.2v-174h39.2v66.5h65.8V110.1z"/>
	<path class="st0" d="M157.8,143v-32.9H41.3v143.6c5.6-2.5,11.8-3.9,18.4-3.9c7.5,0,14.6,1.9,20.8,5.1v-42.5h68.8v-32.9H80.5V143
		H157.8z"/>
	<path class="st0" d="M83.7,298.6c0,7.4-2.4,13.2-7.1,17.4c-4.8,4.2-10.4,6.3-16.8,6.3c-6.5,0-12.1-2.1-16.8-6.3
		c-4.8-4.2-7.1-10-7.1-17.4c0-7.4,2.4-13.2,7.1-17.4c4.8-4.2,10.4-6.3,16.8-6.3c6.5,0,12.1,2.1,16.8,6.3
		C81.3,285.5,83.7,291.3,83.7,298.6z"/>
	<path class="st1" d="M284.1,391.9c0,16.2-2.5,30.3-7.5,42.3c-5,12-12.2,22-21.4,29.9c-9.3,7.9-20.5,13.8-33.8,17.8
		c-13.3,3.9-28.2,5.9-44.7,5.9c-7.5,0-16.3-0.3-26.4-0.9c-10.1-0.6-19.9-1.9-29.6-3.9V301.2c9.7-1.8,19.8-3,30.3-3.6
		c10.5-0.6,19.5-0.9,27.1-0.9c16,0,30.5,1.8,43.5,5.4c13,3.6,24.2,9.3,33.5,17c9.3,7.7,16.5,17.6,21.5,29.6
		C281.6,360.6,284.1,375.1,284.1,391.9z M162.7,451.2c2,0.2,4.3,0.3,6.9,0.4c2.6,0.1,5.7,0.1,9.3,0.1c21,0,36.6-5.3,46.7-15.9
		c10.1-10.6,15.2-25.2,15.2-43.9c0-19.6-4.8-34.4-14.5-44.4c-9.7-10.1-25.1-15.1-46.1-15.1c-2.9,0-5.8,0-8.9,0.1
		c-3.1,0.1-5.9,0.3-8.6,0.7V451.2z"/>
	<path class="st1" d="M319.2,485.4V298.8h126.1V334h-84v36.6h74.6v34.5h-74.6v45h90.2v35.3H319.2z"/>
	<path class="st1" d="M607.6,485.4c-2.1-6.5-4.3-13.1-6.7-20c-2.4-6.8-4.8-13.6-7.1-20.4h-72.9c-2.4,6.8-4.7,13.6-7.1,20.5
		c-2.4,6.8-4.6,13.5-6.6,19.9h-43.6c7-20.1,13.7-38.7,20-55.8c6.3-17.1,12.5-33.1,18.5-48.2c6-15.1,12-29.4,17.8-43
		c5.9-13.6,11.9-26.8,18.2-39.7h39.8c6.1,12.9,12.2,26.2,18.1,39.7c6,13.6,12,27.9,18,43c6,15.1,12.2,31.2,18.5,48.2
		c6.3,17.1,13,35.6,20,55.8H607.6z M557.1,341c-0.9,2.7-2.3,6.4-4.1,11.1c-1.8,4.7-3.9,10.1-6.2,16.2c-2.3,6.1-4.9,12.8-7.7,20.2
		c-2.8,7.4-5.7,15.1-8.7,23.1h53.4c-2.9-8.1-5.6-15.8-8.3-23.2c-2.7-7.4-5.2-14.1-7.6-20.2c-2.4-6.1-4.5-11.5-6.3-16.2
		C559.7,347.3,558.2,343.7,557.1,341z"/>
	<path class="st1" d="M732.6,453.4c5.9,0,10.8-0.5,14.7-1.5c3.9-1,7-2.3,9.3-4c2.3-1.7,3.9-3.7,4.8-6.1c0.9-2.3,1.3-4.9,1.3-7.8
		c0-6.1-2.9-11.2-8.6-15.2c-5.7-4-15.6-8.4-29.6-13.1c-6.1-2.2-12.2-4.6-18.3-7.4c-6.1-2.8-11.6-6.3-16.4-10.5
		c-4.8-4.2-8.8-9.3-11.9-15.4c-3.1-6-4.6-13.3-4.6-22c0-8.6,1.6-16.4,4.8-23.3c3.2-6.9,7.8-12.8,13.7-17.6
		c5.9-4.8,13.1-8.6,21.5-11.2c8.4-2.6,18-3.9,28.6-3.9c12.6,0,23.4,1.3,32.6,4c9.2,2.7,16.7,5.7,22.6,8.9l-12.1,33.1
		c-5.2-2.7-11-5.1-17.4-7.1c-6.4-2.1-14.1-3.1-23-3.1c-10.1,0-17.3,1.4-21.7,4.2c-4.4,2.8-6.6,7-6.6,12.8c0,3.4,0.8,6.3,2.4,8.6
		c1.6,2.3,3.9,4.4,6.9,6.3c3,1.9,6.4,3.6,10.2,5.1c3.9,1.5,8.1,3.1,12.8,4.7c9.7,3.6,18.1,7.1,25.3,10.6c7.2,3.5,13.2,7.6,17.9,12.3
		c4.8,4.7,8.3,10.1,10.6,16.4c2.3,6.3,3.5,13.9,3.5,22.9c0,17.4-6.1,30.9-18.3,40.5c-12.2,9.6-30.6,14.4-55.2,14.4
		c-8.3,0-15.7-0.5-22.4-1.5c-6.6-1-12.5-2.2-17.6-3.6c-5.1-1.4-9.5-3-13.2-4.6c-3.7-1.6-6.8-3.1-9.3-4.6l11.9-33.4
		c5.6,3.1,12.4,5.8,20.6,8.2S720.8,453.4,732.6,453.4z"/>
	<path class="st1" d="M59.7,347.5c-6.4,0-12.5-1.3-18-3.7h-1.6v141.7h40.1V343.7h-2.5C72.2,346.1,66.1,347.5,59.7,347.5z"/>
</g>
</svg>
