<svg xmlns="http://www.w3.org/2000/svg" xmlns:xlink="http://www.w3.org/1999/xlink" viewBox="0 0 168.69 242.83">
  <defs>
    <style>
      .clear_fill {
        fill: none;
      }

      .mask {
        clip-path: url(#clip-path);
      }

      .green_fill {
        fill: #a4cd39;
      }

      .dark_fill {
        fill: #333635;
      }
    </style>
    <clipPath id="clip-path" transform="translate(-6.13 -6.99)">
      <rect class="clear_fill" width="181.04" height="257.15"/>
    </clipPath>
  </defs>
                  <g id="Layer-1">
                    <path class="green_fill" d="M71.47,93.29l-1.36-1.58c-.47-.56-.93-1.16-1.42-1.78s-1-1.25-1.51-1.93-1-1.41-1.52-2.14c-.26-.37-.53-.74-.79-1.12s-.51-.78-.76-1.18c-.51-.79-1-1.6-1.56-2.43-1-1.7-2-3.42-2.93-5.26s-1.81-3.71-2.68-5.59-1.59-3.82-2.22-5.75-1.24-3.83-1.79-5.68c-.26-.93-.47-1.85-.7-2.75l-.33-1.33c-.09-.44-.17-.88-.26-1.31L51.14,51c-.14-.81-.24-1.61-.36-2.36s-.23-1.48-.31-2.17-.14-1.35-.2-2-.13-1.19-.18-1.72-.06-1-.09-1.47q-.07-1.57-.12-2.28L48.15,25.19c-1.54,3.67-22.74,55.64,9.07,70.67,0,0,7.53,2.94,14.94-.06l.71-.29c.15-.05.28-.12.43-.18-.2-.2-.4-.42-.62-.66-.37-.42-.77-.89-1.21-1.38" transform="translate(-6.13 -6.99)"/>
                    <path class="green_fill" d="M80.2,58.78a74.68,74.68,0,0,0-7.8-6.89C47.49,32.71,48.24,25,48.24,25l-.09.21c.45,3.52,1.18,9.32,1.73,13.7,0-.27,0-.41,0-.41s.17,1,.48,2.75c.08.43.15.91.26,1.44s.25,1.08.38,1.68.28,1.23.43,1.9.37,1.37.57,2.1.39,1.48.63,2.26.52,1.57.79,2.39l.41,1.24c.15.41.31.83.47,1.25.33.84.64,1.71,1,2.57.76,1.72,1.48,3.51,2.39,5.25s1.83,3.49,2.78,5.22,2,3.39,3.17,5,2.25,3.12,3.35,4.59c.58.72,1.16,1.41,1.72,2.09l.84,1,.86.95L72,83.93c.54.57,1.09,1.1,1.61,1.62s1,1,1.48,1.46l1.37,1.24,1.2,1.09,1.12.93,1,.86A22.61,22.61,0,0,0,82.67,88a28.74,28.74,0,0,1-2.47-29.2" transform="translate(-6.13 -6.99)"/>
                    <path class="green_fill" d="M130.37,7.27l-2.24,17.82c0,.6-.09,1.59-.16,2.94,0,.57,0,1.2-.11,1.9s-.14,1.43-.22,2.22-.17,1.65-.26,2.54-.27,1.83-.4,2.81-.29,2-.48,3-.42,2.13-.64,3.24c-.11.56-.23,1.13-.34,1.7s-.28,1.14-.43,1.72c-.29,1.16-.57,2.35-.89,3.55-.72,2.38-1.4,4.87-2.32,7.33S120,63,119,65.53s-2.19,4.89-3.45,7.21-2.54,4.6-3.8,6.8c-.66,1.07-1.35,2.11-2,3.14l-1,1.52-1,1.45c-.68.94-1.33,1.87-2,2.76s-1.32,1.7-2,2.5-1.22,1.58-1.83,2.3l-1.76,2L98.67,97c-.27.31-.54.58-.79.84.19.08.36.17.55.24l.92.37c9.58,3.87,19.3.08,19.3.08,41.1-19.41,13.72-86.56,11.72-91.3" transform="translate(-6.13 -6.99)"/>
                    <path class="green_fill" d="M99.52,83.16l2.13-2.33,1.11-1.23,1.09-1.3c.72-.88,1.48-1.77,2.22-2.7,1.42-1.9,3-3.83,4.33-5.93s2.74-4.25,4.09-6.42,2.53-4.46,3.6-6.75,2.1-4.56,3.08-6.77c.45-1.12.86-2.24,1.28-3.33.21-.54.41-1.08.61-1.62s.36-1.07.53-1.6c.35-1.06.69-2.09,1-3.09s.56-2,.83-2.92.52-1.84.73-2.7.38-1.69.56-2.46.33-1.51.48-2.18.24-1.29.34-1.86c.4-2.25.62-3.54.62-3.54s0,.18,0,.52c.7-5.65,1.65-13.14,2.23-17.69-.08-.17-.12-.27-.12-.27s1,10-31.2,34.78a93,93,0,0,0-11.3,10.17,28.35,28.35,0,0,0-2.27,36,28.23,28.23,0,0,0,3.93,4.48l1.34-1.11c.44-.37,1-.77,1.45-1.21l1.55-1.4,1.77-1.6c.62-.58,1.25-1.23,1.92-1.89s1.38-1.35,2.08-2.09" transform="translate(-6.13 -6.99)"/>
                    <path class="dark_fill" d="M31.85,231.37H30.67v-5.63H33.9v1h-2v1.45h1.9v1h-1.9Z" transform="translate(-6.13 -6.99)"/>
                    <path class="dark_fill" d="M40.11,229c-.37-1.22-.59-1.9-.63-2.06s-.09-.29-.11-.38c-.08.33-.32,1.14-.72,2.44Zm.7,2.34L40.4,230h-2l-.41,1.34H36.65l2-5.65H40.1l2,5.65Z" transform="translate(-6.13 -6.99)"/>
                    <path class="dark_fill" d="M46.36,228.24h.38a1.53,1.53,0,0,0,.84-.19.67.67,0,0,0,.27-.59.62.62,0,0,0-.28-.57,1.59,1.59,0,0,0-.85-.17h-.36Zm0,1v2.16h-1.2v-5.63H46.8a2.8,2.8,0,0,1,1.7.42,1.48,1.48,0,0,1,.55,1.27,1.5,1.5,0,0,1-.27.88,1.71,1.71,0,0,1-.78.6c.85,1.27,1.4,2.09,1.66,2.46H48.33L47,229.21Z" transform="translate(-6.13 -6.99)"/>
                    <path class="dark_fill" d="M55.11,231.37,53.76,227h0c.05.9.08,1.5.08,1.8v2.62H52.73v-5.63h1.63l1.33,4.3h0l1.41-4.3h1.63v5.63H57.63V228.7c0-.12,0-.27,0-.43s0-.6,0-1.31h0l-1.45,4.41Z" transform="translate(-6.13 -6.99)"/>
                    <path class="dark_fill" d="M68.11,231.37H66.94v-5.63h3.22v1h-2v1.45H70v1H68.11Z" transform="translate(-6.13 -6.99)"/>
                    <path class="dark_fill" d="M74.82,228.24h.39a1.52,1.52,0,0,0,.83-.19.67.67,0,0,0,.27-.59.61.61,0,0,0-.27-.57,1.63,1.63,0,0,0-.86-.17h-.36Zm0,1v2.16H73.63v-5.63h1.64a2.76,2.76,0,0,1,1.69.42,1.49,1.49,0,0,1,.56,1.27,1.51,1.51,0,0,1-.28.88,1.73,1.73,0,0,1-.77.6c.84,1.27,1.4,2.09,1.65,2.46H76.8l-1.34-2.16Z" transform="translate(-6.13 -6.99)"/>
                    <path class="dark_fill" d="M84.44,231.37H81.2v-5.63h3.24v1h-2V228h1.9v1h-1.9v1.45h2Z" transform="translate(-6.13 -6.99)"/>
                    <path class="dark_fill" d="M91.29,229.8a1.46,1.46,0,0,1-.54,1.2,2.36,2.36,0,0,1-1.53.44,3.51,3.51,0,0,1-1.59-.34V230a6.52,6.52,0,0,0,1,.35,2.8,2.8,0,0,0,.72.11,1.06,1.06,0,0,0,.61-.15.52.52,0,0,0,.21-.45.48.48,0,0,0-.1-.29.94.94,0,0,0-.27-.25,6,6,0,0,0-.73-.38,3.35,3.35,0,0,1-.77-.47,1.72,1.72,0,0,1-.41-.52,1.38,1.38,0,0,1-.16-.69,1.43,1.43,0,0,1,.51-1.17,2.08,2.08,0,0,1,1.4-.43,3.2,3.2,0,0,1,.83.1,5.33,5.33,0,0,1,.84.3l-.39.92a4.94,4.94,0,0,0-.74-.25,2.38,2.38,0,0,0-.58-.08.74.74,0,0,0-.52.16.57.57,0,0,0-.11.69,1,1,0,0,0,.23.22,6.05,6.05,0,0,0,.76.4,2.93,2.93,0,0,1,1.08.75,1.47,1.47,0,0,1,.29.93" transform="translate(-6.13 -6.99)"/>
                    <path class="dark_fill" d="M99.29,231.37H98.1v-2.43H95.87v2.43H94.68v-5.63h1.19v2.2H98.1v-2.2h1.19Z" transform="translate(-6.13 -6.99)"/>
                    <path class="dark_fill" d="M109.66,231.37h-1.2v-4.64h-1.52v-1h4.24v1h-1.52Z" transform="translate(-6.13 -6.99)"/>
                    <path class="dark_fill" d="M115.41,228.55a2.36,2.36,0,0,0,.36,1.42,1.28,1.28,0,0,0,1.07.47c1,0,1.43-.63,1.43-1.89s-.47-1.91-1.42-1.91a1.26,1.26,0,0,0-1.07.48,2.37,2.37,0,0,0-.37,1.43m4.11,0a3,3,0,0,1-.69,2.14,3,3,0,0,1-4,0,3.65,3.65,0,0,1,0-4.3,2.61,2.61,0,0,1,2-.74,2.54,2.54,0,0,1,2,.75,3.05,3.05,0,0,1,.69,2.15" transform="translate(-6.13 -6.99)"/>
                    <path class="dark_fill" d="M129.21,228.06l1.18-2.32h1.28l-1.86,3.44v2.19h-1.19v-2.15l-1.86-3.48h1.29Z" transform="translate(-6.13 -6.99)"/>
                    <path class="dark_fill" d="M135.75,228.55a2.44,2.44,0,0,0,.35,1.42,1.28,1.28,0,0,0,1.07.47c1,0,1.43-.63,1.43-1.89s-.47-1.91-1.42-1.91a1.26,1.26,0,0,0-1.07.48,2.37,2.37,0,0,0-.36,1.43m4.1,0a3,3,0,0,1-.69,2.14,3,3,0,0,1-4,0,3.69,3.69,0,0,1,0-4.3,2.61,2.61,0,0,1,2-.74,2.56,2.56,0,0,1,2,.75,3.1,3.1,0,0,1,.68,2.15" transform="translate(-6.13 -6.99)"/>
                    <path class="dark_fill" d="M148,225.74v3.64a2,2,0,0,1-.28,1.09,1.7,1.7,0,0,1-.8.72,2.85,2.85,0,0,1-1.25.25,2.41,2.41,0,0,1-1.69-.55,2,2,0,0,1-.6-1.53v-3.62h1.19v3.44a1.47,1.47,0,0,0,.26,1,1.12,1.12,0,0,0,.87.3,1.08,1.08,0,0,0,.85-.3,1.45,1.45,0,0,0,.26-1v-3.44Z" transform="translate(-6.13 -6.99)"/>
                    <path class="dark_fill" d="M33.48,133.5h10v7.06h-10V161H25.72V111.55H46.26v7.06H33.48Z" transform="translate(-6.13 -6.99)"/>
                    <path class="dark_fill" d="M57.76,118.61v15.18h3c2.89,0,4.66-1.27,4.66-5.23v-4.87c0-3.6-1.2-5.08-3.95-5.08ZM66.23,161c-.07-.35-.21-.63-.28-.91a7.71,7.71,0,0,1-.35-2.69c-.07-.63-.07-1.48-.07-2.47v-7.76c0-4.59-1.48-6.28-5.08-6.28H57.76V161H50V111.55H61.72c8.11,0,11.5,3.74,11.5,11.37v3.88c0,5.08-1.69,8.4-5.08,10,4,1.63,5.15,5.37,5.15,10.52V155a14.48,14.48,0,0,0,.85,6Z" transform="translate(-6.13 -6.99)"/>
                    <path class="dark_fill" d="M86.14,132.37H96.8v7.06H86.14V153.9H99.55V161H78.37V111.55H99.55v7.06H86.14Z" transform="translate(-6.13 -6.99)"/>
                    <path class="dark_fill" d="M114.8,111c7.62,0,11.43,4.44,11.43,12.42V125h-7.34v-2c0-3.6-1.41-4.87-3.88-4.87s-3.88,1.27-3.88,4.87c0,3.38,1.69,5.85,4,8.11a43.52,43.52,0,0,0,3.67,3.46,24.93,24.93,0,0,1,6.42,8.47,15.09,15.09,0,0,1,1.13,6.14c0,8-4,12.43-11.57,12.43s-11.58-4.45-11.58-12.43v-3h7.34v3.53c0,3.6,1.56,4.8,4,4.8s4-1.2,4-4.8c0-3.39-1.7-5.86-4-8.19-1.13-1.13-2.33-2.26-3.6-3.46a23.29,23.29,0,0,1-6.5-8.4,15.22,15.22,0,0,1-1.13-6.14c0-8,3.81-12.42,11.44-12.42" transform="translate(-6.13 -6.99)"/>
                    <path class="dark_fill" d="M138.51,161h-7.76V111.55h7.76v21.18h8.83V111.55h7.9V161h-7.9V139.79h-8.83Z" transform="translate(-6.13 -6.99)"/>
                    <rect class="dark_fill" x="18.84" y="158.26" width="5.72" height="36.39"/>
                    <path class="dark_fill" d="M40,175.28v26.36H34.8V165.25H42L47.85,187V165.25h5.09v36.39H47.07Z" transform="translate(-6.13 -6.99)"/>
                    <path class="dark_fill" d="M70.57,190.1h5.51l-2.76-18.4Zm13.05,11.54H77.84l-1-6.6h-7l-1,6.6H63.6l5.82-36.39h8.37Z" transform="translate(-6.13 -6.99)"/>
                    <path class="dark_fill" d="M100,185.26v11.18h3.28c1.92,0,3-.88,3-3.59v-3.17c0-3.38-1-4.42-3.69-4.42Zm0-14.81v9.62h2.24c2.13,0,3.43-.94,3.43-3.85v-2c0-2.65-.88-3.74-2.91-3.74Zm2.91-5.2c6,0,8.48,2.75,8.48,8.37v1.3c0,3.74-1.15,6.13-3.69,7.33,3.12,1.19,4.26,3.9,4.26,7.8v3c0,5.62-2.91,8.63-8.68,8.63h-9V165.25Z" transform="translate(-6.13 -6.99)"/>
                    <path class="dark_fill" d="M120.68,193.27c0,2.65,1.15,3.59,3,3.59s3-.94,3-3.59V173.62c0-2.65-1.14-3.59-3-3.59s-3,.94-3,3.59ZM115,174c0-5.87,3.07-9.15,8.69-9.15s8.68,3.28,8.68,9.15v18.93c0,5.87-3.07,9.15-8.68,9.15s-8.69-3.28-8.69-9.15Z" transform="translate(-6.13 -6.99)"/>
                    <path class="dark_fill" d="M154.32,165.25l-6,17.68,6.39,18.71h-6L144,187.24l-4.74,14.4h-5.35l6.39-18.71-6-17.68h5.92l4.32,13.41L149,165.25Z" transform="translate(-6.13 -6.99)"/>
                    <rect class="green_fill" x="32.9" y="203.95" width="102.89" height="4.79"/>
                    <path class="green_fill" d="M152.09,81.13v6h16.75V243.84H12.11V87.12H33.65v-6H6.13V249.82H174.82V81.13Z" transform="translate(-6.13 -6.99)"/>
                  </g>
</svg>